<mxfile host="app.diagrams.net" modified="2022-09-30T08:25:02.538Z" agent="5.0 (Macintosh; Intel Mac OS X 10_15_7) AppleWebKit/537.36 (KHTML, like Gecko) Chrome/105.0.0.0 Safari/537.36" etag="5oYPvA28mSlVDPfmT70o" version="20.3.7" type="github">
  <diagram id="qoMkyWwI3nYbz-VqIXqR" name="第 1 页">
    <mxGraphModel dx="1298" dy="1151" grid="0" gridSize="10" guides="1" tooltips="1" connect="1" arrows="1" fold="1" page="0" pageScale="1" pageWidth="827" pageHeight="1169" background="none" math="0" shadow="0">
      <root>
        <mxCell id="0" />
        <mxCell id="1" parent="0" />
        <mxCell id="wuk8vyHPsgGAvW6CBaT4-1" value="" style="shape=datastore;whiteSpace=wrap;html=1;fillColor=#dae8fc;strokeColor=#6c8ebf;gradientColor=#7ea6e0;" vertex="1" parent="1">
          <mxGeometry x="167.5" y="450" width="101" height="47" as="geometry" />
        </mxCell>
        <mxCell id="wuk8vyHPsgGAvW6CBaT4-22" value="" style="edgeStyle=orthogonalEdgeStyle;rounded=0;orthogonalLoop=1;jettySize=auto;html=1;fontSize=18;dashed=1;strokeColor=#4D4D4D;" edge="1" parent="1" source="wuk8vyHPsgGAvW6CBaT4-2" target="wuk8vyHPsgGAvW6CBaT4-1">
          <mxGeometry relative="1" as="geometry" />
        </mxCell>
        <mxCell id="wuk8vyHPsgGAvW6CBaT4-2" value="" style="shape=datastore;whiteSpace=wrap;html=1;fillColor=#dae8fc;gradientColor=#7ea6e0;strokeColor=#6c8ebf;" vertex="1" parent="1">
          <mxGeometry x="302.5" y="450" width="101" height="47" as="geometry" />
        </mxCell>
        <mxCell id="wuk8vyHPsgGAvW6CBaT4-3" value="" style="shape=datastore;whiteSpace=wrap;html=1;fillColor=#dae8fc;gradientColor=#7ea6e0;strokeColor=#6c8ebf;" vertex="1" parent="1">
          <mxGeometry x="437.5" y="450" width="101" height="47" as="geometry" />
        </mxCell>
        <mxCell id="wuk8vyHPsgGAvW6CBaT4-4" value="MySQL Server" style="rounded=1;whiteSpace=wrap;html=1;fillColor=#fad9d5;strokeColor=#ae4132;" vertex="1" parent="1">
          <mxGeometry x="190" y="198" width="324" height="30" as="geometry" />
        </mxCell>
        <mxCell id="wuk8vyHPsgGAvW6CBaT4-5" value="InnoDB" style="rounded=1;whiteSpace=wrap;html=1;fillColor=#d0cee2;strokeColor=#56517e;" vertex="1" parent="1">
          <mxGeometry x="189" y="237" width="160" height="59" as="geometry" />
        </mxCell>
        <mxCell id="wuk8vyHPsgGAvW6CBaT4-6" value="User Space File System" style="rounded=1;whiteSpace=wrap;html=1;fillColor=#fad9d5;strokeColor=#ae4132;" vertex="1" parent="1">
          <mxGeometry x="190" y="307" width="325" height="29" as="geometry" />
        </mxCell>
        <mxCell id="wuk8vyHPsgGAvW6CBaT4-7" value="client/" style="rounded=1;whiteSpace=wrap;html=1;fillColor=#fad7ac;strokeColor=#b46504;" vertex="1" parent="1">
          <mxGeometry x="190" y="344" width="325" height="30" as="geometry" />
        </mxCell>
        <mxCell id="wuk8vyHPsgGAvW6CBaT4-8" value="MySQL SQL Layer" style="rounded=1;whiteSpace=wrap;html=1;fillColor=#fad7ac;strokeColor=#b46504;" vertex="1" parent="1">
          <mxGeometry x="189" y="151" width="325" height="43" as="geometry" />
        </mxCell>
        <mxCell id="wuk8vyHPsgGAvW6CBaT4-11" value="X-Engine" style="rounded=1;whiteSpace=wrap;html=1;fillColor=#b1ddf0;strokeColor=#10739e;" vertex="1" parent="1">
          <mxGeometry x="353" y="237" width="160" height="59" as="geometry" />
        </mxCell>
        <mxCell id="wuk8vyHPsgGAvW6CBaT4-12" value="&lt;font style=&quot;font-size: 18px;&quot;&gt;KwaiStore&lt;/font&gt;" style="text;html=1;align=center;verticalAlign=middle;resizable=0;points=[];autosize=1;strokeColor=none;fillColor=none;" vertex="1" parent="1">
          <mxGeometry x="303.5" y="506" width="100" height="34" as="geometry" />
        </mxCell>
        <mxCell id="wuk8vyHPsgGAvW6CBaT4-14" value="" style="rounded=0;whiteSpace=wrap;html=1;fontSize=18;fillColor=none;dashed=1;" vertex="1" parent="1">
          <mxGeometry x="130.5" y="95" width="445" height="210" as="geometry" />
        </mxCell>
        <mxCell id="wuk8vyHPsgGAvW6CBaT4-15" value="Mysql计算节点" style="text;html=1;align=center;verticalAlign=middle;resizable=0;points=[];autosize=1;strokeColor=none;fillColor=none;fontSize=18;" vertex="1" parent="1">
          <mxGeometry x="283" y="103" width="137" height="34" as="geometry" />
        </mxCell>
        <mxCell id="wuk8vyHPsgGAvW6CBaT4-16" value="" style="rounded=0;whiteSpace=wrap;html=1;fontSize=18;fillColor=none;dashed=1;" vertex="1" parent="1">
          <mxGeometry x="129" y="395" width="445" height="143" as="geometry" />
        </mxCell>
        <mxCell id="wuk8vyHPsgGAvW6CBaT4-24" value="" style="endArrow=classic;html=1;rounded=0;fontSize=18;dashed=1;strokeColor=#4D4D4D;" edge="1" parent="1">
          <mxGeometry width="50" height="50" relative="1" as="geometry">
            <mxPoint x="268.5" y="484" as="sourcePoint" />
            <mxPoint x="302" y="484" as="targetPoint" />
          </mxGeometry>
        </mxCell>
        <mxCell id="wuk8vyHPsgGAvW6CBaT4-25" value="" style="edgeStyle=orthogonalEdgeStyle;rounded=0;orthogonalLoop=1;jettySize=auto;html=1;fontSize=18;dashed=1;strokeColor=#4D4D4D;" edge="1" parent="1">
          <mxGeometry relative="1" as="geometry">
            <mxPoint x="437.5" y="485" as="sourcePoint" />
            <mxPoint x="403.5" y="485" as="targetPoint" />
          </mxGeometry>
        </mxCell>
        <mxCell id="wuk8vyHPsgGAvW6CBaT4-26" value="" style="endArrow=classic;html=1;rounded=0;fontSize=18;dashed=1;strokeColor=#4D4D4D;" edge="1" parent="1">
          <mxGeometry width="50" height="50" relative="1" as="geometry">
            <mxPoint x="404" y="473" as="sourcePoint" />
            <mxPoint x="437.5" y="473" as="targetPoint" />
          </mxGeometry>
        </mxCell>
        <mxCell id="wuk8vyHPsgGAvW6CBaT4-29" style="edgeStyle=orthogonalEdgeStyle;rounded=0;orthogonalLoop=1;jettySize=auto;html=1;fontSize=18;" edge="1" parent="1">
          <mxGeometry relative="1" as="geometry">
            <mxPoint x="217.5" y="450" as="targetPoint" />
            <mxPoint x="488" y="414" as="sourcePoint" />
          </mxGeometry>
        </mxCell>
        <mxCell id="wuk8vyHPsgGAvW6CBaT4-31" style="edgeStyle=orthogonalEdgeStyle;rounded=0;orthogonalLoop=1;jettySize=auto;html=1;fontSize=18;" edge="1" parent="1">
          <mxGeometry relative="1" as="geometry">
            <mxPoint x="487.5" y="450" as="targetPoint" />
            <mxPoint x="488" y="414" as="sourcePoint" />
          </mxGeometry>
        </mxCell>
        <mxCell id="wuk8vyHPsgGAvW6CBaT4-32" style="edgeStyle=orthogonalEdgeStyle;rounded=0;orthogonalLoop=1;jettySize=auto;html=1;fontSize=18;" edge="1" parent="1">
          <mxGeometry relative="1" as="geometry">
            <mxPoint x="352.5" y="450" as="targetPoint" />
            <mxPoint x="353" y="414" as="sourcePoint" />
          </mxGeometry>
        </mxCell>
        <mxCell id="wuk8vyHPsgGAvW6CBaT4-33" value="" style="shape=flexArrow;endArrow=classic;html=1;rounded=0;strokeColor=#666666;fontSize=18;fillColor=#f5f5f5;gradientColor=#b3b3b3;" edge="1" parent="1">
          <mxGeometry width="50" height="50" relative="1" as="geometry">
            <mxPoint x="353" y="377" as="sourcePoint" />
            <mxPoint x="353" y="410" as="targetPoint" />
          </mxGeometry>
        </mxCell>
        <mxCell id="wuk8vyHPsgGAvW6CBaT4-34" value="" style="shape=curlyBracket;whiteSpace=wrap;html=1;rounded=1;flipH=1;fontSize=18;fillColor=none;" vertex="1" parent="1">
          <mxGeometry x="524" y="317" width="38" height="54" as="geometry" />
        </mxCell>
        <mxCell id="wuk8vyHPsgGAvW6CBaT4-35" value="PolarFS" style="rounded=1;whiteSpace=wrap;html=1;fillColor=#ffe6cc;strokeColor=#d79b00;" vertex="1" parent="1">
          <mxGeometry x="562" y="327.5" width="234" height="33" as="geometry" />
        </mxCell>
        <mxCell id="wuk8vyHPsgGAvW6CBaT4-36" value="&lt;font style=&quot;font-size: 14px;&quot;&gt;data&lt;/font&gt;" style="shape=datastore;whiteSpace=wrap;html=1;fontSize=18;fillColor=#dae8fc;strokeColor=#6c8ebf;" vertex="1" parent="1">
          <mxGeometry x="1071" y="356" width="60" height="60" as="geometry" />
        </mxCell>
        <mxCell id="wuk8vyHPsgGAvW6CBaT4-37" value="&lt;font style=&quot;font-size: 14px;&quot;&gt;data&lt;/font&gt;" style="shape=datastore;whiteSpace=wrap;html=1;fontSize=18;fillColor=#dae8fc;strokeColor=#6c8ebf;" vertex="1" parent="1">
          <mxGeometry x="1682" y="357.5" width="60" height="60" as="geometry" />
        </mxCell>
        <mxCell id="wuk8vyHPsgGAvW6CBaT4-96" style="edgeStyle=orthogonalEdgeStyle;rounded=0;orthogonalLoop=1;jettySize=auto;html=1;entryX=0.5;entryY=0;entryDx=0;entryDy=0;entryPerimeter=0;strokeColor=#4D4D4D;fontSize=18;" edge="1" parent="1" source="wuk8vyHPsgGAvW6CBaT4-38" target="wuk8vyHPsgGAvW6CBaT4-48">
          <mxGeometry relative="1" as="geometry" />
        </mxCell>
        <mxCell id="wuk8vyHPsgGAvW6CBaT4-38" value="&lt;font style=&quot;font-size: 14px;&quot;&gt;log&lt;/font&gt; &lt;font style=&quot;font-size: 14px;&quot;&gt;buffer&lt;/font&gt;" style="shape=tape;whiteSpace=wrap;html=1;strokeWidth=1;size=0.19;fontSize=18;fillColor=#f0a30a;fontColor=#000000;strokeColor=#BD7000;" vertex="1" parent="1">
          <mxGeometry x="1469.5" y="188.5" width="81" height="47" as="geometry" />
        </mxCell>
        <mxCell id="wuk8vyHPsgGAvW6CBaT4-114" style="edgeStyle=orthogonalEdgeStyle;rounded=0;orthogonalLoop=1;jettySize=auto;html=1;exitX=0.5;exitY=0;exitDx=0;exitDy=0;exitPerimeter=0;strokeColor=#4D4D4D;fontSize=14;startArrow=none;" edge="1" parent="1" source="wuk8vyHPsgGAvW6CBaT4-47" target="wuk8vyHPsgGAvW6CBaT4-92">
          <mxGeometry relative="1" as="geometry">
            <Array as="points">
              <mxPoint x="1212" y="169" />
              <mxPoint x="1212" y="169" />
            </Array>
          </mxGeometry>
        </mxCell>
        <mxCell id="wuk8vyHPsgGAvW6CBaT4-47" value="&lt;font style=&quot;font-size: 14px;&quot;&gt;redlog file&lt;/font&gt;" style="strokeWidth=1;html=1;shape=mxgraph.flowchart.multi-document;whiteSpace=wrap;fontSize=18;fillColor=#ffe6cc;strokeColor=#d79b00;align=center;" vertex="1" parent="1">
          <mxGeometry x="1168" y="357.5" width="88" height="60" as="geometry" />
        </mxCell>
        <mxCell id="wuk8vyHPsgGAvW6CBaT4-97" style="edgeStyle=orthogonalEdgeStyle;rounded=0;orthogonalLoop=1;jettySize=auto;html=1;strokeColor=#4D4D4D;fontSize=18;" edge="1" parent="1" source="wuk8vyHPsgGAvW6CBaT4-48">
          <mxGeometry relative="1" as="geometry">
            <mxPoint x="1632" y="324.5" as="targetPoint" />
          </mxGeometry>
        </mxCell>
        <mxCell id="wuk8vyHPsgGAvW6CBaT4-48" value="&lt;font style=&quot;font-size: 14px;&quot;&gt;log file&lt;/font&gt;" style="strokeWidth=1;html=1;shape=mxgraph.flowchart.multi-document;whiteSpace=wrap;fontSize=18;fillColor=#ffe6cc;strokeColor=#d79b00;" vertex="1" parent="1">
          <mxGeometry x="1466" y="357.5" width="88" height="60" as="geometry" />
        </mxCell>
        <mxCell id="wuk8vyHPsgGAvW6CBaT4-50" value="" style="shape=table;html=1;whiteSpace=wrap;startSize=0;container=1;collapsible=0;childLayout=tableLayout;strokeWidth=1;fontSize=18;fillColor=none;" vertex="1" parent="1">
          <mxGeometry x="1042" y="157" width="130" height="63" as="geometry" />
        </mxCell>
        <mxCell id="wuk8vyHPsgGAvW6CBaT4-51" value="" style="shape=tableRow;horizontal=0;startSize=0;swimlaneHead=0;swimlaneBody=0;top=0;left=0;bottom=0;right=0;collapsible=0;dropTarget=0;fillColor=none;points=[[0,0.5],[1,0.5]];portConstraint=eastwest;strokeWidth=1;fontSize=18;" vertex="1" parent="wuk8vyHPsgGAvW6CBaT4-50">
          <mxGeometry width="130" height="21" as="geometry" />
        </mxCell>
        <mxCell id="wuk8vyHPsgGAvW6CBaT4-52" value="" style="shape=partialRectangle;html=1;whiteSpace=wrap;connectable=0;fillColor=none;top=0;left=0;bottom=0;right=0;overflow=hidden;strokeWidth=1;fontSize=18;" vertex="1" parent="wuk8vyHPsgGAvW6CBaT4-51">
          <mxGeometry width="44" height="21" as="geometry">
            <mxRectangle width="44" height="21" as="alternateBounds" />
          </mxGeometry>
        </mxCell>
        <mxCell id="wuk8vyHPsgGAvW6CBaT4-53" value="" style="shape=partialRectangle;html=1;whiteSpace=wrap;connectable=0;fillColor=none;top=0;left=0;bottom=0;right=0;overflow=hidden;strokeWidth=1;fontSize=18;" vertex="1" parent="wuk8vyHPsgGAvW6CBaT4-51">
          <mxGeometry x="44" width="42" height="21" as="geometry">
            <mxRectangle width="42" height="21" as="alternateBounds" />
          </mxGeometry>
        </mxCell>
        <mxCell id="wuk8vyHPsgGAvW6CBaT4-54" value="" style="shape=partialRectangle;html=1;whiteSpace=wrap;connectable=0;fillColor=none;top=0;left=0;bottom=0;right=0;overflow=hidden;strokeWidth=1;fontSize=18;" vertex="1" parent="wuk8vyHPsgGAvW6CBaT4-51">
          <mxGeometry x="86" width="44" height="21" as="geometry">
            <mxRectangle width="44" height="21" as="alternateBounds" />
          </mxGeometry>
        </mxCell>
        <mxCell id="wuk8vyHPsgGAvW6CBaT4-55" value="" style="shape=tableRow;horizontal=0;startSize=0;swimlaneHead=0;swimlaneBody=0;top=0;left=0;bottom=0;right=0;collapsible=0;dropTarget=0;fillColor=none;points=[[0,0.5],[1,0.5]];portConstraint=eastwest;strokeWidth=1;fontSize=18;" vertex="1" parent="wuk8vyHPsgGAvW6CBaT4-50">
          <mxGeometry y="21" width="130" height="21" as="geometry" />
        </mxCell>
        <mxCell id="wuk8vyHPsgGAvW6CBaT4-56" value="" style="shape=partialRectangle;html=1;whiteSpace=wrap;connectable=0;fillColor=none;top=0;left=0;bottom=0;right=0;overflow=hidden;strokeWidth=1;fontSize=18;" vertex="1" parent="wuk8vyHPsgGAvW6CBaT4-55">
          <mxGeometry width="44" height="21" as="geometry">
            <mxRectangle width="44" height="21" as="alternateBounds" />
          </mxGeometry>
        </mxCell>
        <mxCell id="wuk8vyHPsgGAvW6CBaT4-57" value="" style="shape=partialRectangle;html=1;whiteSpace=wrap;connectable=0;fillColor=none;top=0;left=0;bottom=0;right=0;overflow=hidden;strokeWidth=1;fontSize=18;" vertex="1" parent="wuk8vyHPsgGAvW6CBaT4-55">
          <mxGeometry x="44" width="42" height="21" as="geometry">
            <mxRectangle width="42" height="21" as="alternateBounds" />
          </mxGeometry>
        </mxCell>
        <mxCell id="wuk8vyHPsgGAvW6CBaT4-58" value="" style="shape=partialRectangle;html=1;whiteSpace=wrap;connectable=0;fillColor=none;top=0;left=0;bottom=0;right=0;overflow=hidden;strokeWidth=1;fontSize=18;" vertex="1" parent="wuk8vyHPsgGAvW6CBaT4-55">
          <mxGeometry x="86" width="44" height="21" as="geometry">
            <mxRectangle width="44" height="21" as="alternateBounds" />
          </mxGeometry>
        </mxCell>
        <mxCell id="wuk8vyHPsgGAvW6CBaT4-59" value="" style="shape=tableRow;horizontal=0;startSize=0;swimlaneHead=0;swimlaneBody=0;top=0;left=0;bottom=0;right=0;collapsible=0;dropTarget=0;fillColor=none;points=[[0,0.5],[1,0.5]];portConstraint=eastwest;strokeWidth=1;fontSize=18;" vertex="1" parent="wuk8vyHPsgGAvW6CBaT4-50">
          <mxGeometry y="42" width="130" height="21" as="geometry" />
        </mxCell>
        <mxCell id="wuk8vyHPsgGAvW6CBaT4-60" value="" style="shape=partialRectangle;html=1;whiteSpace=wrap;connectable=0;fillColor=none;top=0;left=0;bottom=0;right=0;overflow=hidden;strokeWidth=1;fontSize=18;" vertex="1" parent="wuk8vyHPsgGAvW6CBaT4-59">
          <mxGeometry width="44" height="21" as="geometry">
            <mxRectangle width="44" height="21" as="alternateBounds" />
          </mxGeometry>
        </mxCell>
        <mxCell id="wuk8vyHPsgGAvW6CBaT4-61" value="" style="shape=partialRectangle;html=1;whiteSpace=wrap;connectable=0;fillColor=none;top=0;left=0;bottom=0;right=0;overflow=hidden;strokeWidth=1;fontSize=18;" vertex="1" parent="wuk8vyHPsgGAvW6CBaT4-59">
          <mxGeometry x="44" width="42" height="21" as="geometry">
            <mxRectangle width="42" height="21" as="alternateBounds" />
          </mxGeometry>
        </mxCell>
        <mxCell id="wuk8vyHPsgGAvW6CBaT4-62" value="" style="shape=partialRectangle;html=1;whiteSpace=wrap;connectable=0;fillColor=none;top=0;left=0;bottom=0;right=0;overflow=hidden;pointerEvents=1;strokeWidth=1;fontSize=18;" vertex="1" parent="wuk8vyHPsgGAvW6CBaT4-59">
          <mxGeometry x="86" width="44" height="21" as="geometry">
            <mxRectangle width="44" height="21" as="alternateBounds" />
          </mxGeometry>
        </mxCell>
        <mxCell id="wuk8vyHPsgGAvW6CBaT4-77" value="" style="shape=table;html=1;whiteSpace=wrap;startSize=0;container=1;collapsible=0;childLayout=tableLayout;strokeWidth=1;fontSize=18;fillColor=none;" vertex="1" parent="1">
          <mxGeometry x="1562.5" y="153" width="130" height="63" as="geometry" />
        </mxCell>
        <mxCell id="wuk8vyHPsgGAvW6CBaT4-78" value="" style="shape=tableRow;horizontal=0;startSize=0;swimlaneHead=0;swimlaneBody=0;top=0;left=0;bottom=0;right=0;collapsible=0;dropTarget=0;fillColor=none;points=[[0,0.5],[1,0.5]];portConstraint=eastwest;strokeWidth=1;fontSize=18;" vertex="1" parent="wuk8vyHPsgGAvW6CBaT4-77">
          <mxGeometry width="130" height="21" as="geometry" />
        </mxCell>
        <mxCell id="wuk8vyHPsgGAvW6CBaT4-79" value="" style="shape=partialRectangle;html=1;whiteSpace=wrap;connectable=0;fillColor=none;top=0;left=0;bottom=0;right=0;overflow=hidden;strokeWidth=1;fontSize=18;" vertex="1" parent="wuk8vyHPsgGAvW6CBaT4-78">
          <mxGeometry width="44" height="21" as="geometry">
            <mxRectangle width="44" height="21" as="alternateBounds" />
          </mxGeometry>
        </mxCell>
        <mxCell id="wuk8vyHPsgGAvW6CBaT4-80" value="" style="shape=partialRectangle;html=1;whiteSpace=wrap;connectable=0;fillColor=none;top=0;left=0;bottom=0;right=0;overflow=hidden;strokeWidth=1;fontSize=18;" vertex="1" parent="wuk8vyHPsgGAvW6CBaT4-78">
          <mxGeometry x="44" width="42" height="21" as="geometry">
            <mxRectangle width="42" height="21" as="alternateBounds" />
          </mxGeometry>
        </mxCell>
        <mxCell id="wuk8vyHPsgGAvW6CBaT4-81" value="" style="shape=partialRectangle;html=1;whiteSpace=wrap;connectable=0;fillColor=none;top=0;left=0;bottom=0;right=0;overflow=hidden;strokeWidth=1;fontSize=18;" vertex="1" parent="wuk8vyHPsgGAvW6CBaT4-78">
          <mxGeometry x="86" width="44" height="21" as="geometry">
            <mxRectangle width="44" height="21" as="alternateBounds" />
          </mxGeometry>
        </mxCell>
        <mxCell id="wuk8vyHPsgGAvW6CBaT4-82" value="" style="shape=tableRow;horizontal=0;startSize=0;swimlaneHead=0;swimlaneBody=0;top=0;left=0;bottom=0;right=0;collapsible=0;dropTarget=0;fillColor=none;points=[[0,0.5],[1,0.5]];portConstraint=eastwest;strokeWidth=1;fontSize=18;" vertex="1" parent="wuk8vyHPsgGAvW6CBaT4-77">
          <mxGeometry y="21" width="130" height="21" as="geometry" />
        </mxCell>
        <mxCell id="wuk8vyHPsgGAvW6CBaT4-83" value="" style="shape=partialRectangle;html=1;whiteSpace=wrap;connectable=0;fillColor=none;top=0;left=0;bottom=0;right=0;overflow=hidden;strokeWidth=1;fontSize=18;" vertex="1" parent="wuk8vyHPsgGAvW6CBaT4-82">
          <mxGeometry width="44" height="21" as="geometry">
            <mxRectangle width="44" height="21" as="alternateBounds" />
          </mxGeometry>
        </mxCell>
        <mxCell id="wuk8vyHPsgGAvW6CBaT4-84" value="" style="shape=partialRectangle;html=1;whiteSpace=wrap;connectable=0;fillColor=none;top=0;left=0;bottom=0;right=0;overflow=hidden;strokeWidth=1;fontSize=18;" vertex="1" parent="wuk8vyHPsgGAvW6CBaT4-82">
          <mxGeometry x="44" width="42" height="21" as="geometry">
            <mxRectangle width="42" height="21" as="alternateBounds" />
          </mxGeometry>
        </mxCell>
        <mxCell id="wuk8vyHPsgGAvW6CBaT4-85" value="" style="shape=partialRectangle;html=1;whiteSpace=wrap;connectable=0;fillColor=none;top=0;left=0;bottom=0;right=0;overflow=hidden;strokeWidth=1;fontSize=18;" vertex="1" parent="wuk8vyHPsgGAvW6CBaT4-82">
          <mxGeometry x="86" width="44" height="21" as="geometry">
            <mxRectangle width="44" height="21" as="alternateBounds" />
          </mxGeometry>
        </mxCell>
        <mxCell id="wuk8vyHPsgGAvW6CBaT4-86" value="" style="shape=tableRow;horizontal=0;startSize=0;swimlaneHead=0;swimlaneBody=0;top=0;left=0;bottom=0;right=0;collapsible=0;dropTarget=0;fillColor=none;points=[[0,0.5],[1,0.5]];portConstraint=eastwest;strokeWidth=1;fontSize=18;" vertex="1" parent="wuk8vyHPsgGAvW6CBaT4-77">
          <mxGeometry y="42" width="130" height="21" as="geometry" />
        </mxCell>
        <mxCell id="wuk8vyHPsgGAvW6CBaT4-87" value="" style="shape=partialRectangle;html=1;whiteSpace=wrap;connectable=0;fillColor=none;top=0;left=0;bottom=0;right=0;overflow=hidden;strokeWidth=1;fontSize=18;" vertex="1" parent="wuk8vyHPsgGAvW6CBaT4-86">
          <mxGeometry width="44" height="21" as="geometry">
            <mxRectangle width="44" height="21" as="alternateBounds" />
          </mxGeometry>
        </mxCell>
        <mxCell id="wuk8vyHPsgGAvW6CBaT4-88" value="" style="shape=partialRectangle;html=1;whiteSpace=wrap;connectable=0;fillColor=none;top=0;left=0;bottom=0;right=0;overflow=hidden;strokeWidth=1;fontSize=18;" vertex="1" parent="wuk8vyHPsgGAvW6CBaT4-86">
          <mxGeometry x="44" width="42" height="21" as="geometry">
            <mxRectangle width="42" height="21" as="alternateBounds" />
          </mxGeometry>
        </mxCell>
        <mxCell id="wuk8vyHPsgGAvW6CBaT4-89" value="" style="shape=partialRectangle;html=1;whiteSpace=wrap;connectable=0;fillColor=none;top=0;left=0;bottom=0;right=0;overflow=hidden;pointerEvents=1;strokeWidth=1;fontSize=18;" vertex="1" parent="wuk8vyHPsgGAvW6CBaT4-86">
          <mxGeometry x="86" width="44" height="21" as="geometry">
            <mxRectangle width="44" height="21" as="alternateBounds" />
          </mxGeometry>
        </mxCell>
        <mxCell id="wuk8vyHPsgGAvW6CBaT4-99" value="" style="shape=singleArrow;whiteSpace=wrap;html=1;arrowWidth=0.4;arrowSize=0.4;fontSize=18;fillColor=none;rounded=1;strokeWidth=1;" vertex="1" parent="wuk8vyHPsgGAvW6CBaT4-86">
          <mxGeometry x="130" width="NaN" height="21" as="geometry">
            <mxRectangle width="NaN" height="21" as="alternateBounds" />
          </mxGeometry>
        </mxCell>
        <mxCell id="wuk8vyHPsgGAvW6CBaT4-94" style="edgeStyle=orthogonalEdgeStyle;rounded=0;orthogonalLoop=1;jettySize=auto;html=1;entryX=0.444;entryY=0.096;entryDx=0;entryDy=0;entryPerimeter=0;strokeColor=#4D4D4D;fontSize=18;" edge="1" parent="1" target="wuk8vyHPsgGAvW6CBaT4-38">
          <mxGeometry relative="1" as="geometry">
            <mxPoint x="1584" y="64" as="sourcePoint" />
          </mxGeometry>
        </mxCell>
        <mxCell id="wuk8vyHPsgGAvW6CBaT4-90" value="&lt;font style=&quot;font-size: 14px;&quot;&gt;io thread&lt;/font&gt;" style="rounded=1;whiteSpace=wrap;html=1;strokeWidth=1;fontSize=18;fillColor=#f8cecc;strokeColor=#b85450;" vertex="1" parent="1">
          <mxGeometry x="1466" y="64" width="280" height="27.5" as="geometry" />
        </mxCell>
        <mxCell id="wuk8vyHPsgGAvW6CBaT4-116" style="edgeStyle=orthogonalEdgeStyle;rounded=0;orthogonalLoop=1;jettySize=auto;html=1;exitX=0;exitY=0.5;exitDx=0;exitDy=0;entryX=1;entryY=0.5;entryDx=0;entryDy=0;strokeColor=#4D4D4D;fontSize=14;" edge="1" parent="1" source="wuk8vyHPsgGAvW6CBaT4-91" target="wuk8vyHPsgGAvW6CBaT4-93">
          <mxGeometry relative="1" as="geometry" />
        </mxCell>
        <mxCell id="wuk8vyHPsgGAvW6CBaT4-91" value="&lt;font style=&quot;font-size: 14px;&quot;&gt;ack thread&lt;/font&gt;" style="rounded=1;whiteSpace=wrap;html=1;strokeWidth=1;fontSize=18;fillColor=#f8cecc;strokeColor=#b85450;" vertex="1" parent="1">
          <mxGeometry x="1466" y="24.5" width="280" height="27.5" as="geometry" />
        </mxCell>
        <mxCell id="wuk8vyHPsgGAvW6CBaT4-115" style="edgeStyle=orthogonalEdgeStyle;rounded=0;orthogonalLoop=1;jettySize=auto;html=1;exitX=1;exitY=0.5;exitDx=0;exitDy=0;entryX=0;entryY=0.5;entryDx=0;entryDy=0;strokeColor=#4D4D4D;fontSize=14;" edge="1" parent="1" source="wuk8vyHPsgGAvW6CBaT4-92" target="wuk8vyHPsgGAvW6CBaT4-90">
          <mxGeometry relative="1" as="geometry" />
        </mxCell>
        <mxCell id="wuk8vyHPsgGAvW6CBaT4-92" value="&lt;font style=&quot;font-size: 14px;&quot;&gt;log send&lt;/font&gt;" style="rounded=1;whiteSpace=wrap;html=1;strokeWidth=1;fontSize=18;fillColor=#f8cecc;strokeColor=#b85450;" vertex="1" parent="1">
          <mxGeometry x="1015" y="64" width="280" height="27.5" as="geometry" />
        </mxCell>
        <mxCell id="wuk8vyHPsgGAvW6CBaT4-121" style="edgeStyle=orthogonalEdgeStyle;rounded=0;orthogonalLoop=1;jettySize=auto;html=1;exitX=0;exitY=0.5;exitDx=0;exitDy=0;entryX=0.5;entryY=0;entryDx=0;entryDy=0;entryPerimeter=0;strokeColor=#4D4D4D;fontSize=14;dashed=1;" edge="1" parent="1" source="wuk8vyHPsgGAvW6CBaT4-93" target="wuk8vyHPsgGAvW6CBaT4-119">
          <mxGeometry relative="1" as="geometry" />
        </mxCell>
        <mxCell id="wuk8vyHPsgGAvW6CBaT4-93" value="&lt;font style=&quot;font-size: 14px;&quot;&gt;ack process&lt;/font&gt;" style="rounded=1;whiteSpace=wrap;html=1;strokeWidth=1;fontSize=18;fillColor=#f8cecc;strokeColor=#b85450;" vertex="1" parent="1">
          <mxGeometry x="1015" y="24.5" width="280" height="27.5" as="geometry" />
        </mxCell>
        <mxCell id="wuk8vyHPsgGAvW6CBaT4-100" value="" style="edgeStyle=orthogonalEdgeStyle;rounded=0;orthogonalLoop=1;jettySize=auto;html=1;strokeColor=#4D4D4D;fontSize=18;" edge="1" parent="1" source="wuk8vyHPsgGAvW6CBaT4-98" target="wuk8vyHPsgGAvW6CBaT4-99">
          <mxGeometry relative="1" as="geometry" />
        </mxCell>
        <mxCell id="wuk8vyHPsgGAvW6CBaT4-124" style="edgeStyle=orthogonalEdgeStyle;rounded=0;orthogonalLoop=1;jettySize=auto;html=1;exitX=1;exitY=0.5;exitDx=0;exitDy=0;dashed=1;strokeColor=#4D4D4D;fontSize=14;entryX=1;entryY=0.75;entryDx=0;entryDy=0;" edge="1" parent="1" source="wuk8vyHPsgGAvW6CBaT4-98" target="wuk8vyHPsgGAvW6CBaT4-91">
          <mxGeometry relative="1" as="geometry">
            <mxPoint x="1874" y="49" as="targetPoint" />
            <Array as="points">
              <mxPoint x="1766" y="297" />
              <mxPoint x="1766" y="45" />
            </Array>
          </mxGeometry>
        </mxCell>
        <mxCell id="wuk8vyHPsgGAvW6CBaT4-125" style="edgeStyle=orthogonalEdgeStyle;rounded=0;orthogonalLoop=1;jettySize=auto;html=1;exitX=1;exitY=0.75;exitDx=0;exitDy=0;entryX=0.408;entryY=0.017;entryDx=0;entryDy=0;entryPerimeter=0;dashed=1;strokeColor=#4D4D4D;fontSize=14;" edge="1" parent="1" source="wuk8vyHPsgGAvW6CBaT4-98" target="wuk8vyHPsgGAvW6CBaT4-120">
          <mxGeometry relative="1" as="geometry" />
        </mxCell>
        <mxCell id="wuk8vyHPsgGAvW6CBaT4-98" value="&lt;font style=&quot;font-size: 14px;&quot;&gt;log apply&lt;/font&gt;" style="rounded=1;whiteSpace=wrap;html=1;strokeWidth=1;fontSize=18;fillColor=#e1d5e7;strokeColor=#9673a6;" vertex="1" parent="1">
          <mxGeometry x="1572.5" y="269" width="120" height="55.5" as="geometry" />
        </mxCell>
        <mxCell id="wuk8vyHPsgGAvW6CBaT4-102" value="" style="endArrow=classic;html=1;rounded=0;strokeColor=#4D4D4D;fontSize=14;exitX=0.308;exitY=0.027;exitDx=0;exitDy=0;exitPerimeter=0;" edge="1" parent="1">
          <mxGeometry width="50" height="50" relative="1" as="geometry">
            <mxPoint x="1659.5" y="268.9984999999999" as="sourcePoint" />
            <mxPoint x="1659.54" y="219.5" as="targetPoint" />
          </mxGeometry>
        </mxCell>
        <mxCell id="wuk8vyHPsgGAvW6CBaT4-103" value="" style="endArrow=classic;html=1;rounded=0;strokeColor=#4D4D4D;fontSize=14;exitX=0.308;exitY=0.027;exitDx=0;exitDy=0;exitPerimeter=0;" edge="1" parent="1">
          <mxGeometry width="50" height="50" relative="1" as="geometry">
            <mxPoint x="1627" y="268.9984999999999" as="sourcePoint" />
            <mxPoint x="1627.04" y="219.5" as="targetPoint" />
          </mxGeometry>
        </mxCell>
        <mxCell id="wuk8vyHPsgGAvW6CBaT4-104" value="" style="endArrow=classic;html=1;rounded=0;strokeColor=#4D4D4D;fontSize=14;exitX=0.308;exitY=0.027;exitDx=0;exitDy=0;exitPerimeter=0;" edge="1" parent="1">
          <mxGeometry width="50" height="50" relative="1" as="geometry">
            <mxPoint x="1594.5" y="268.9984999999999" as="sourcePoint" />
            <mxPoint x="1594.54" y="219.5" as="targetPoint" />
          </mxGeometry>
        </mxCell>
        <mxCell id="wuk8vyHPsgGAvW6CBaT4-106" value="&lt;font style=&quot;font-size: 14px;&quot;&gt;buffer pool&lt;/font&gt;" style="text;html=1;align=center;verticalAlign=middle;resizable=0;points=[];autosize=1;strokeColor=none;fillColor=none;fontSize=18;" vertex="1" parent="1">
          <mxGeometry x="1062" y="168" width="84" height="34" as="geometry" />
        </mxCell>
        <mxCell id="wuk8vyHPsgGAvW6CBaT4-107" value="&lt;font style=&quot;font-size: 14px;&quot;&gt;buffer pool&lt;/font&gt;" style="text;html=1;align=center;verticalAlign=middle;resizable=0;points=[];autosize=1;strokeColor=none;fillColor=none;fontSize=18;" vertex="1" parent="1">
          <mxGeometry x="1587.5" y="167.5" width="84" height="34" as="geometry" />
        </mxCell>
        <mxCell id="wuk8vyHPsgGAvW6CBaT4-108" style="edgeStyle=orthogonalEdgeStyle;rounded=0;orthogonalLoop=1;jettySize=auto;html=1;exitX=1;exitY=0.5;exitDx=0;exitDy=0;entryX=0.5;entryY=0;entryDx=0;entryDy=0;strokeColor=#4D4D4D;fontSize=14;" edge="1" parent="1" source="wuk8vyHPsgGAvW6CBaT4-82" target="wuk8vyHPsgGAvW6CBaT4-37">
          <mxGeometry relative="1" as="geometry" />
        </mxCell>
        <mxCell id="wuk8vyHPsgGAvW6CBaT4-110" value="" style="endArrow=classic;html=1;rounded=0;strokeColor=#4D4D4D;fontSize=14;entryX=0;entryY=0.5;entryDx=0;entryDy=0;" edge="1" parent="1" target="wuk8vyHPsgGAvW6CBaT4-98">
          <mxGeometry width="50" height="50" relative="1" as="geometry">
            <mxPoint x="1525.5" y="229" as="sourcePoint" />
            <mxPoint x="1532.5" y="394" as="targetPoint" />
            <Array as="points">
              <mxPoint x="1525.5" y="297" />
            </Array>
          </mxGeometry>
        </mxCell>
        <mxCell id="wuk8vyHPsgGAvW6CBaT4-111" value="runtime" style="text;html=1;align=center;verticalAlign=middle;resizable=0;points=[];autosize=1;strokeColor=none;fillColor=none;fontSize=14;" vertex="1" parent="1">
          <mxGeometry x="1515.5" y="269" width="65" height="29" as="geometry" />
        </mxCell>
        <mxCell id="wuk8vyHPsgGAvW6CBaT4-112" value="" style="rounded=0;whiteSpace=wrap;html=1;strokeWidth=1;fontSize=14;fillColor=none;dashed=1;" vertex="1" parent="1">
          <mxGeometry x="972" y="-12" width="342" height="124" as="geometry" />
        </mxCell>
        <mxCell id="wuk8vyHPsgGAvW6CBaT4-117" style="edgeStyle=orthogonalEdgeStyle;rounded=0;orthogonalLoop=1;jettySize=auto;html=1;strokeColor=#4D4D4D;fontSize=18;entryX=0.5;entryY=0;entryDx=0;entryDy=0;" edge="1" parent="1" target="wuk8vyHPsgGAvW6CBaT4-36">
          <mxGeometry relative="1" as="geometry">
            <mxPoint x="1101" y="219" as="sourcePoint" />
            <mxPoint x="1101" y="323" as="targetPoint" />
          </mxGeometry>
        </mxCell>
        <mxCell id="wuk8vyHPsgGAvW6CBaT4-119" value="undo" style="strokeWidth=1;html=1;shape=mxgraph.flowchart.database;whiteSpace=wrap;fontSize=14;fillColor=#eeeeee;strokeColor=#36393d;" vertex="1" parent="1">
          <mxGeometry x="965" y="357.5" width="60" height="60" as="geometry" />
        </mxCell>
        <mxCell id="wuk8vyHPsgGAvW6CBaT4-120" value="undo" style="strokeWidth=1;html=1;shape=mxgraph.flowchart.database;whiteSpace=wrap;fontSize=14;fillColor=#eeeeee;strokeColor=#36393d;" vertex="1" parent="1">
          <mxGeometry x="1756.5" y="356" width="60" height="60" as="geometry" />
        </mxCell>
        <mxCell id="wuk8vyHPsgGAvW6CBaT4-126" value="MySQL Server" style="text;html=1;align=center;verticalAlign=middle;resizable=0;points=[];autosize=1;strokeColor=none;fillColor=none;fontSize=14;" vertex="1" parent="1">
          <mxGeometry x="1097" y="-12" width="109" height="29" as="geometry" />
        </mxCell>
        <mxCell id="wuk8vyHPsgGAvW6CBaT4-127" value="MySQL Server" style="text;html=1;align=center;verticalAlign=middle;resizable=0;points=[];autosize=1;strokeColor=none;fillColor=none;fontSize=14;" vertex="1" parent="1">
          <mxGeometry x="1550.5" y="-12" width="109" height="29" as="geometry" />
        </mxCell>
        <mxCell id="wuk8vyHPsgGAvW6CBaT4-128" value="" style="rounded=0;whiteSpace=wrap;html=1;strokeWidth=1;fontSize=14;fillColor=none;dashed=1;" vertex="1" parent="1">
          <mxGeometry x="1447" y="-12" width="342" height="124" as="geometry" />
        </mxCell>
        <mxCell id="wuk8vyHPsgGAvW6CBaT4-129" value="InnoDB" style="text;html=1;align=center;verticalAlign=middle;resizable=0;points=[];autosize=1;strokeColor=none;fillColor=none;fontSize=14;" vertex="1" parent="1">
          <mxGeometry x="1222" y="153" width="65" height="29" as="geometry" />
        </mxCell>
        <mxCell id="wuk8vyHPsgGAvW6CBaT4-130" value="InnoDB" style="text;html=1;align=center;verticalAlign=middle;resizable=0;points=[];autosize=1;strokeColor=none;fillColor=none;fontSize=14;" vertex="1" parent="1">
          <mxGeometry x="1697" y="151" width="65" height="29" as="geometry" />
        </mxCell>
        <mxCell id="wuk8vyHPsgGAvW6CBaT4-132" value="" style="rounded=0;whiteSpace=wrap;html=1;strokeWidth=1;fontSize=14;fillColor=none;dashed=1;" vertex="1" parent="1">
          <mxGeometry x="1436.5" y="135" width="392" height="312" as="geometry" />
        </mxCell>
        <mxCell id="wuk8vyHPsgGAvW6CBaT4-133" value="&lt;font style=&quot;font-size: 18px;&quot;&gt;Master&lt;/font&gt;" style="text;html=1;align=center;verticalAlign=middle;resizable=0;points=[];autosize=1;strokeColor=none;fillColor=none;fontSize=14;" vertex="1" parent="1">
          <mxGeometry x="1108" y="-68" width="73" height="34" as="geometry" />
        </mxCell>
        <mxCell id="wuk8vyHPsgGAvW6CBaT4-134" value="&lt;font style=&quot;font-size: 18px;&quot;&gt;Slave&lt;/font&gt;" style="text;html=1;align=center;verticalAlign=middle;resizable=0;points=[];autosize=1;strokeColor=none;fillColor=none;fontSize=14;" vertex="1" parent="1">
          <mxGeometry x="1586.5" y="-68" width="63" height="34" as="geometry" />
        </mxCell>
        <mxCell id="wuk8vyHPsgGAvW6CBaT4-135" value="" style="rounded=0;whiteSpace=wrap;html=1;strokeWidth=1;fontSize=14;fillColor=none;dashed=1;" vertex="1" parent="1">
          <mxGeometry x="1436.5" y="135" width="392" height="312" as="geometry" />
        </mxCell>
        <mxCell id="wuk8vyHPsgGAvW6CBaT4-136" value="" style="rounded=0;whiteSpace=wrap;html=1;strokeWidth=1;fontSize=14;fillColor=none;dashed=1;" vertex="1" parent="1">
          <mxGeometry x="947" y="135" width="392" height="312" as="geometry" />
        </mxCell>
      </root>
    </mxGraphModel>
  </diagram>
</mxfile>
